<?xml version="1.0" encoding="utf-8"?>
<!-- Generator: Adobe Illustrator 21.0.0, SVG Export Plug-In . SVG Version: 6.00 Build 0)  -->
<svg version="1.1" id="Layer_1" xmlns="http://www.w3.org/2000/svg" xmlns:xlink="http://www.w3.org/1999/xlink" x="0px" y="0px"
	 viewBox="0 0 58.5 43" style="enable-background:new 0 0 58.5 43;" xml:space="preserve">
<style type="text/css">
	.st0{opacity:0.75;}
	.st1{fill:none;stroke:#808285;stroke-width:0.75;stroke-miterlimit:10;}
	.st2{fill:#808285;}
</style>
<g class="st0">
	<path class="st1" d="M29.3,3.1C32.2,6.9,36,17.7,36,21.9c0,4.2-3.7,15-6.7,18.9 M29.3,40.9C26.4,37,22.6,26.2,22.6,22
		c0-4.2,3.7-15,6.7-18.9 M2.2,21.9h54.4 M29.3,40.8c15,0,27.2-8.5,27.2-18.9c0-10.4-12.2-18.9-27.2-18.9c-15,0-27.2,8.5-27.2,18.9
		C2.1,32.4,14.3,40.8,29.3,40.8 M29.3,40.8c-4.6,0-18-9.7-18-18.9c0-9.2,13.5-18.8,18-18.8 M29.3,3.1c4.6,0,17.3,9.8,17.3,19
		c0,9.2-12.6,18.7-17.2,18.7 M46.5,36.6C43.2,35,33.6,34,29.2,34c-4.4,0-13.8,1-17.1,2.5 M46.5,7.4C43.2,9,33.6,10,29.2,10
		c-4.4,0-13.8-1-17.1-2.5"/>
	<path class="st2" d="M23.4,24.8v1.1c0,0.9,0.4,1.7,1.5,1.7c0.8,0,1.3-0.8,1.3-1.6c0-1.3-1-1.8-2-2.4c-1.1-0.7-1.9-1.3-2.8-2.3
		c-0.6-0.8-0.9-1.6-0.9-3c0-3,1.6-4.5,4.3-4.5c3.1,0,4.5,2.2,4.3,5.2h-3c0-0.9-0.1-2.2-1.3-2.3c-0.7-0.1-1.1,0.4-1.2,1.1
		c-0.1,1,0.4,1.4,1.1,2c1.3,0.9,2.4,1.6,3.2,2.4c0.7,0.7,1.3,1.7,1.3,3.7c0,3.1-1.5,4.8-4.4,4.8c-3.2,0-4.4-1.9-4.4-4v-1.7
		L23.4,24.8L23.4,24.8z"/>
	<polygon class="st2" points="30.3,14.2 39.4,14.2 39.4,17.4 36.4,17.4 36.4,30.1 33.2,30.1 33.2,17.4 30.3,17.4 	"/>
	<polygon class="st2" points="43.6,17.1 44.6,24.2 42.5,24.2 42.2,27 44.9,27 45.4,30.1 48.4,30.1 45.7,14.2 41.5,14.2 38.7,30.1 
		41.7,30.1 	"/>
	<polygon class="st2" points="14.4,17.1 15.4,24.2 13.4,24.2 13,27 15.8,27 16.3,30.1 19.2,30.1 16.6,14.2 12.3,14.2 9.6,30.1 
		12.6,30.1 	"/>
</g>
</svg>
