<?xml version="1.0" encoding="utf-8"?>
<!-- Generator: Adobe Illustrator 21.0.0, SVG Export Plug-In . SVG Version: 6.00 Build 0)  -->
<svg version="1.1" id="Layer_1" xmlns="http://www.w3.org/2000/svg" xmlns:xlink="http://www.w3.org/1999/xlink" x="0px" y="0px"
	 viewBox="0 0 88.7 43" style="enable-background:new 0 0 88.7 43;" xml:space="preserve">
<style type="text/css">
	.st0{fill:#8A8C8E;}
</style>
<g>
	<path class="st0" d="M86.3,33.8V8.7H60.1v25.1H86.3z M80.4,15.9c-2-1.2-4-1.8-5.9-1.8c-2,0-3.7,0.6-5,1.9c-1.3,1.2-2,2.8-2,4.7
		c0,1.8,0.7,3.4,2,4.7c1.4,1.2,3,1.8,5,1.8c2.1,0,4.2-0.6,6.2-1.9v2.7c-1.9,1-4,1.5-6.3,1.5c-2,0-3.6-0.4-5-1.2
		c-1.3-0.8-2.4-1.9-3.2-3.2c-0.8-1.5-1.2-2.9-1.2-4.5c0-2.6,0.9-4.7,2.7-6.4c1.8-1.7,4-2.6,6.7-2.6c1.9,0,3.9,0.5,6.1,1.5L80.4,15.9
		L80.4,15.9L80.4,15.9z M57.2,8.7H31v25.1h26.2L57.2,8.7L57.2,8.7z M39.1,12.5h4.5c1.5,0,2.6,0.2,3.4,0.6c0.8,0.4,1.4,0.9,1.8,1.6
		c0.4,0.7,0.6,1.5,0.6,2.4c0,1.7-0.9,2.9-2.7,3.6c1.3,0.2,2.3,0.7,3,1.6c0.7,0.8,1.1,1.8,1.1,2.9c0,0.9-0.3,1.7-0.7,2.4
		c-0.5,0.7-1.1,1.2-2,1.7c-0.9,0.4-2,0.6-3.3,0.6h-5.9V12.5L39.1,12.5z"/>
	<path class="st0" d="M43.2,19.9c1.3,0,2.3-0.3,2.8-0.7c0.6-0.6,0.9-1.2,0.9-2c0-1.6-1.1-2.5-3.2-2.5h-2.1v5.2H43.2L43.2,19.9z
		 M43.9,22.1h-2.3v5.5h2.5c1.2,0,2.1-0.1,2.7-0.3c0.6-0.3,0.9-0.6,1.2-1c0.3-0.4,0.4-0.9,0.4-1.4c0-0.5-0.2-1-0.5-1.4
		c-0.3-0.5-0.7-0.8-1.3-1C46.1,22.2,45.1,22.1,43.9,22.1z M28,8.7H1.9v25.1H28V8.7z M9.8,29.8V12.5h4.5c1.5,0,2.5,0.2,3.3,0.6
		c0.8,0.4,1.5,0.9,1.8,1.6c0.4,0.6,0.6,1.4,0.7,2.3c0,1.7-0.9,2.9-2.7,3.7c1.3,0.2,2.3,0.7,3,1.5c0.7,0.8,1.1,1.8,1.1,2.9
		c0,0.9-0.2,1.7-0.7,2.4c-0.5,0.7-1.1,1.3-2,1.7c-0.9,0.4-2,0.6-3.3,0.6L9.8,29.8L9.8,29.8L9.8,29.8z"/>
	<path class="st0" d="M14.5,14.6h-2.1v5.2H14c1.3,0,2.2-0.3,2.8-0.7c0.6-0.5,0.9-1.2,0.9-2C17.7,15.5,16.6,14.6,14.5,14.6z
		 M14.7,22.1h-2.3v5.5h2.4c1.3,0,2.2-0.1,2.8-0.3c0.5-0.2,0.9-0.5,1.2-0.9c0.3-0.5,0.4-0.9,0.4-1.5c0-0.6-0.2-1.1-0.5-1.4
		c-0.3-0.5-0.8-0.8-1.3-1C16.8,22.2,15.9,22.1,14.7,22.1L14.7,22.1z"/>
</g>
</svg>
