<?xml version="1.0" encoding="utf-8"?>
<!-- Generator: Adobe Illustrator 21.0.0, SVG Export Plug-In . SVG Version: 6.00 Build 0)  -->
<svg version="1.1" id="Layer_1" xmlns="http://www.w3.org/2000/svg" xmlns:xlink="http://www.w3.org/1999/xlink" x="0px" y="0px"
	 viewBox="0 0 97.5 43" style="enable-background:new 0 0 97.5 43;" xml:space="preserve">
<style type="text/css">
	.st0{opacity:0.75;}
	.st1{fill:#808285;}
	.st2{fill:#58595B;}
	.st3{fill:none;stroke:#808285;stroke-width:0.75;stroke-miterlimit:10;}
</style>
<g class="st0">
	<g>
		<g>
			<g>
				<g>
					<g>
						<polygon class="st1" points="23.8,25.7 12.3,25.7 11.9,27.1 15,27.1 15.5,29 20.6,29 21.1,27.1 24.2,27.1 						"/>
						<path class="st1" d="M14.2,18c-0.4,0.6-0.6,1.3-0.5,2c0.1,0.7,0.5,1.3,1.1,1.8l2.7,2c0.1,0.1,0.2,0.3,0.3,0.4
							c0,0.2,0,0.4-0.1,0.5l0.4,0.3l1.4-2c0.3-0.5,0.5-1,0.5-1.6c0-0.1,0-0.3,0-0.4c-0.1-0.7-0.5-1.3-1.1-1.8l-2.7-2
							c-0.1-0.1-0.2-0.3-0.3-0.4c0,0,0-0.1,0-0.1c0-0.1,0-0.3,0.1-0.4l0,0L15.6,16L14.2,18"/>
						<path class="st1" d="M15.9,10c-0.5,0.7-0.7,1.5-0.7,2.3c0,0.2,0,0.4,0,0.6c0.2,1,0.7,1.9,1.6,2.6l3.4,2.5
							c0.5,0.3,0.8,0.8,0.8,1.4c0,0.1,0,0.2,0,0.3c0,0.4-0.1,0.9-0.4,1.2l0,0l0.3,0.2l2.7-3.8c0.6-0.8,0.9-1.9,0.7-2.9
							c-0.2-1-0.7-1.9-1.6-2.6l-4.2-3c-0.3-0.2-0.4-0.5-0.5-0.8c-0.1-0.3,0-0.6,0.2-0.9L18.1,7L15.9,10z"/>
						<path class="st1" d="M8.8,30.1h3.1c0.8,0,1.4,0.2,1.8,0.6c0.3,0.3,0.5,0.7,0.5,1.2v0c0,0.8-0.4,1.2-0.9,1.5
							c0.8,0.3,1.3,0.8,1.3,1.7v0c0,1.2-1,1.9-2.5,1.9H8.8V30.1z M11.6,32.9c0.7,0,1.1-0.2,1.1-0.7v0c0-0.4-0.3-0.7-1-0.7h-1.5v1.4
							H11.6z M12,35.6c0.7,0,1.1-0.2,1.1-0.7v0c0-0.5-0.3-0.7-1.1-0.7h-1.7v1.5H12z"/>
						<path class="st1" d="M15.2,30.1h3.1c0.8,0,1.4,0.2,1.8,0.6c0.3,0.3,0.5,0.7,0.5,1.2v0c0,0.8-0.4,1.2-0.9,1.5
							c0.8,0.3,1.3,0.8,1.3,1.7v0c0,1.2-1,1.9-2.5,1.9h-3.2V30.1z M18,32.9c0.7,0,1.1-0.2,1.1-0.7v0c0-0.4-0.3-0.7-1-0.7h-1.5v1.4
							H18z M18.4,35.6c0.7,0,1.1-0.2,1.1-0.7v0c0-0.5-0.3-0.7-1.1-0.7h-1.7v1.5H18.4z"/>
						<path class="st1" d="M21.6,30.1h3.1c0.8,0,1.4,0.2,1.8,0.6c0.3,0.3,0.5,0.7,0.5,1.2v0c0,0.8-0.4,1.2-0.9,1.5
							c0.8,0.3,1.3,0.8,1.3,1.7v0c0,1.2-1,1.9-2.5,1.9h-3.2V30.1z M24.4,32.9c0.7,0,1.1-0.2,1.1-0.7v0c0-0.4-0.3-0.7-1-0.7H23v1.4
							H24.4z M24.8,35.6c0.7,0,1.1-0.2,1.1-0.7v0c0-0.5-0.3-0.7-1.1-0.7H23v1.5H24.8z"/>
					</g>
				</g>
			</g>
		</g>
	</g>
	<g>
		<polygon class="st1" points="42.1,16.6 41.3,18.5 42.8,18.5 		"/>
		<path class="st1" d="M42.9,26.5L42.9,26.5c0-0.4-0.3-0.6-0.8-0.6h-1.3v1.2h1.2C42.5,27.1,42.9,26.9,42.9,26.5z"/>
		<path class="st1" d="M71.5,18L71.5,18c0-1-0.7-1.8-1.8-1.8h-1v3.5h1C70.8,19.8,71.5,19.1,71.5,18z"/>
		<path class="st1" d="M88.5,16.3h-1v3.5h1c1,0,1.8-0.7,1.8-1.7v0C90.2,17,89.5,16.3,88.5,16.3z"/>
		<path class="st1" d="M42.2,28.2h-1.5v1.3h1.5c0.6,0,0.9-0.2,0.9-0.6v0C43.2,28.4,42.9,28.2,42.2,28.2z"/>
		<path class="st1" d="M90.5,4.5H33.8v34.9h56.8c2.7,0,4.9-2.2,4.9-4.9v-25C95.5,6.7,93.2,4.5,90.5,4.5z M73.7,15.1h1.3v5.8h-1.3
			V15.1z M67.5,15.1h2.3c1.8,0,3.1,1.3,3.1,2.9v0c0,1.6-1.3,2.9-3.1,2.9h-2.3V15.1z M62.3,15.1h4.4v1.1h-3.1v1.2h2.7v1.1h-2.7v1.2
			h3.2v1.1h-4.4V15.1z M41.5,15.1h1.2l2.5,5.9h-1.3l-0.5-1.3h-2.5l-0.5,1.3H39L41.5,15.1z M44.5,29c0,1.1-0.9,1.6-2.2,1.6h-2.8v-5.8
			h2.7c0.7,0,1.2,0.2,1.5,0.5c0.3,0.3,0.4,0.6,0.4,1v0c0,0.7-0.3,1-0.8,1.3C44,27.8,44.5,28.2,44.5,29L44.5,29z M50.1,28.1
			c0,1.8-1,2.6-2.6,2.6c-1.6,0-2.5-0.9-2.5-2.6v-3.3h1.3v3.3c0,0.9,0.5,1.4,1.3,1.4s1.3-0.5,1.3-1.4v-3.3h1.3V28.1z M48,21
			c-1.7,0-3-1.3-3-3v0c0-1.7,1.2-3,3-3c1.1,0,1.8,0.4,2.3,0.9l-0.8,0.9c-0.4-0.4-0.9-0.7-1.5-0.7c-1,0-1.7,0.8-1.7,1.8v0
			c0,1,0.7,1.8,1.7,1.8c0.7,0,1.1-0.3,1.5-0.7l0.8,0.8C49.8,20.6,49.2,21,48,21z M55.2,28.9c0,1.2-0.9,1.8-2.1,1.8
			c-0.9,0-1.8-0.3-2.5-0.9l0.8-0.9c0.5,0.4,1.1,0.7,1.7,0.7c0.5,0,0.8-0.2,0.8-0.5v0c0-0.3-0.2-0.5-1.2-0.7
			c-1.2-0.3-1.9-0.6-1.9-1.8v0c0-1.1,0.8-1.8,2-1.8c0.8,0,1.6,0.3,2.2,0.7l-0.7,1c-0.5-0.4-1-0.6-1.5-0.6c-0.5,0-0.7,0.2-0.7,0.5v0
			c0,0.4,0.2,0.5,1.3,0.8C54.6,27.4,55.2,27.8,55.2,28.9L55.2,28.9z M53.6,21c-1.7,0-3-1.3-3-3v0c0-1.7,1.2-3,3-3
			c1.1,0,1.8,0.4,2.3,0.9l-0.8,0.9c-0.4-0.4-0.9-0.7-1.5-0.7c-1,0-1.7,0.8-1.7,1.8v0c0,1,0.7,1.8,1.7,1.8c0.7,0,1.1-0.3,1.5-0.7
			L56,20C55.4,20.6,54.8,21,53.6,21z M57.3,30.6H56v-5.8h1.3V30.6z M57.9,20.9h-1.3v-5.8h2.7c0.7,0,1.3,0.2,1.7,0.6
			c0.3,0.3,0.5,0.8,0.5,1.3v0c0,0.9-0.5,1.5-1.2,1.8l1.4,2.1h-1.5L59,19.1h0h-1V20.9z M63.6,30.6h-1.1l-2.8-3.7v3.7h-1.3v-5.8h1.2
			l2.7,3.6v-3.6h1.3V30.6z M69,30.6h-4.4v-5.8H69v1.1h-3.1v1.2h2.7v1.1h-2.7v1.2H69V30.6z M74,28.9c0,1.2-0.9,1.8-2.1,1.8
			c-0.9,0-1.8-0.3-2.5-0.9l0.8-0.9c0.5,0.4,1.1,0.7,1.7,0.7c0.5,0,0.8-0.2,0.8-0.5v0c0-0.3-0.2-0.5-1.2-0.7
			c-1.2-0.3-1.9-0.6-1.9-1.8v0c0-1.1,0.8-1.8,2-1.8c0.8,0,1.6,0.3,2.2,0.7l-0.7,1c-0.5-0.4-1-0.6-1.5-0.6c-0.5,0-0.7,0.2-0.7,0.5v0
			c0,0.4,0.2,0.5,1.3,0.8C73.3,27.4,74,27.8,74,28.9L74,28.9z M78.8,28.9c0,1.2-0.9,1.8-2.1,1.8c-0.9,0-1.8-0.3-2.5-0.9l0.8-0.9
			c0.5,0.4,1.1,0.7,1.7,0.7c0.5,0,0.8-0.2,0.8-0.5v0c0-0.3-0.2-0.5-1.2-0.7c-1.2-0.3-1.9-0.6-1.9-1.8v0c0-1.1,0.8-1.8,2-1.8
			c0.8,0,1.6,0.3,2.2,0.7l-0.7,1c-0.5-0.4-1-0.6-1.5-0.6c-0.5,0-0.7,0.2-0.7,0.5v0c0,0.4,0.2,0.5,1.3,0.8
			C78.2,27.4,78.8,27.8,78.8,28.9L78.8,28.9z M80.4,16.3h-1.8v4.6h-1.3v-4.6h-1.8v-1.2h4.8V16.3z M85.5,20.9H81v-5.8h4.4v1.1h-3.1
			v1.2H85v1.1h-2.7v1.2h3.2V20.9z M91.6,18c0,1.6-1.3,2.9-3.1,2.9h-2.3v-5.8h2.3C90.3,15.1,91.6,16.4,91.6,18L91.6,18z"/>
		<path class="st1" d="M60.2,17.1L60.2,17.1c0-0.6-0.4-0.8-1-0.8h-1.3v1.7h1.3C59.9,17.9,60.2,17.6,60.2,17.1z"/>
	</g>
	<g>
		<path class="st2" d="M27.5,36.1L27.5,36.1c0-0.5,0.4-0.9,0.9-0.9s0.8,0.4,0.8,0.8v0c0,0.5-0.4,0.9-0.9,0.9
			C27.9,37,27.5,36.6,27.5,36.1z M29.1,36.1L29.1,36.1c0-0.4-0.3-0.8-0.8-0.8c-0.4,0-0.8,0.3-0.8,0.8v0c0,0.4,0.3,0.8,0.8,0.8
			C28.8,36.9,29.1,36.5,29.1,36.1z M28,35.7h0.4c0.1,0,0.2,0,0.3,0.1c0,0,0.1,0.1,0.1,0.2v0c0,0.1-0.1,0.2-0.2,0.3l0.2,0.3h-0.2
			l-0.2-0.3h-0.2v0.3H28V35.7z M28.4,36.1c0.1,0,0.2-0.1,0.2-0.1v0c0-0.1-0.1-0.1-0.2-0.1h-0.2v0.3H28.4z"/>
	</g>
	<path class="st3" d="M95.5,34.5c0,2.7-2.2,4.9-4.9,4.9H33.8H7c-2.7,0-4.9-2.2-4.9-4.9v-25c0-2.7,2.2-4.9,4.9-4.9h26.8h56.8
		c2.7,0,4.9,2.2,4.9,4.9V34.5z"/>
</g>
</svg>
