<?xml version="1.0" encoding="utf-8"?>
<!-- Generator: Adobe Illustrator 21.0.0, SVG Export Plug-In . SVG Version: 6.00 Build 0)  -->
<svg version="1.1" id="Layer_1" xmlns="http://www.w3.org/2000/svg" xmlns:xlink="http://www.w3.org/1999/xlink" x="0px" y="0px"
	 viewBox="0 0 63.5 43" style="enable-background:new 0 0 63.5 43;" xml:space="preserve">
<style type="text/css">
	.st0{opacity:0.75;}
	.st1{fill:#808285;}
</style>
<g class="st0">
	<path class="st1" d="M21.3,8.5c0,0-5,0-5,0c-7.4,0-13.5,6-13.5,13.5s6,13.5,13.5,13.5l9.4,0c2.4,0,4.3-1.9,4.3-4.3l0-8.2l6.5,10.3
		c0.9,1.3,2.4,2.2,4.1,2.2c2.7,0,4.9-2.2,4.9-4.9l0-7.6l6.5,10.3c0.9,1.3,2.4,2.2,4.1,2.2c2.7,0,4.9-2.2,4.9-4.9l0-22h-3.4v22
		c0,0.9-0.7,1.6-1.6,1.6c-0.5,0-1-0.3-1.3-0.7L43.3,13.1c-0.2-0.3-0.6-0.3-0.8-0.2c-0.2,0.1-0.3,0.3-0.3,0.5l0,17.1
		c0,0.9-0.7,1.6-1.6,1.6c-0.5,0-1-0.3-1.3-0.7L27.7,13.1c-0.2-0.3-0.6-0.3-0.8-0.2c-0.2,0.1-0.3,0.3-0.3,0.5l0,17.7
		c0,0.5-0.4,0.9-0.9,0.9l-9.4,0c-5.6,0-10.1-4.5-10.1-10.1s4.5-10.1,10.1-10.1l5,0V8.5z"/>
	<path class="st1" d="M21.8,27.8c0.3,0,0.5-0.2,0.5-0.5l0,0l0-13.8c0-2.7,2.2-4.9,4.9-4.9c1.7,0,3.2,0.9,4.1,2.2l6.5,10.2l0-7.5
		c0-2.7,2.2-4.9,4.9-4.9c1.7,0,3.2,0.9,4.1,2.2l6.5,10.2V8.5h3.4l0,22c0,0.3-0.3,0.6-0.6,0.6c-0.2,0-0.4-0.1-0.5-0.2L44.1,12.5
		c-0.3-0.4-0.8-0.7-1.3-0.7c-0.9,0-1.6,0.7-1.6,1.6l0,17.1c0,0.3-0.3,0.6-0.6,0.6c-0.2,0-0.4-0.1-0.5-0.2L28.6,12.5
		c-0.3-0.4-0.8-0.7-1.3-0.7c-0.9,0-1.6,0.7-1.6,1.6l0,17.2c0,0.3-0.2,0.5-0.5,0.5l-8.9,0c-5,0-9.1-4.1-9.1-9.2c0-5,4.1-9.2,9.1-9.2
		c0,0,5,0,5,0v3.4l-5,0c-3.2,0-5.8,2.6-5.8,5.8c0,3.2,2.6,5.8,5.8,5.8L21.8,27.8L21.8,27.8z"/>
</g>
</svg>
