<?xml version="1.0" encoding="utf-8"?>
<!-- Generator: Adobe Illustrator 21.0.0, SVG Export Plug-In . SVG Version: 6.00 Build 0)  -->
<svg version="1.1" id="Layer_1" xmlns="http://www.w3.org/2000/svg" xmlns:xlink="http://www.w3.org/1999/xlink" x="0px" y="0px"
	 viewBox="0 0 171 43" style="enable-background:new 0 0 171 43;" xml:space="preserve">
<style type="text/css">
	.st0{opacity:0.75;fill:#808285;}
</style>
<path class="st0" d="M15.7,13c0-1.8-1.7-2.4-3.2-2.3v0.2c0.9,0.1,1.5,0.4,1.5,1c0,0.4-0.3,0.9-1.1,0.9c-0.7,0-1.8-0.4-2.9-0.7
	c-1.2-0.4-2.3-0.8-3.2-0.8c-1.8,0-3.2,1.4-3.2,3c0,1.4,1.1,1.8,1.4,2l0-0.1c-0.3-0.2-0.4-0.4-0.4-1c0-0.5,0.4-1.1,1.3-1.1
	c0.8,0,1.9,0.4,3.4,0.8c1.3,0.4,2.6,0.7,3.4,0.8v2.9l-1.4,1.2l1.4,1.2v4c-0.7,0.4-1.6,0.6-2.3,0.6c-1.4,0-2.6-0.4-3.6-1.5l3.8-1.8
	v-6.4L6,18c0.5-1.2,1.4-2.1,2.4-2.8l0-0.1C5.6,15.9,3,18.4,3,21.6c0,3.8,3,6.5,6.5,6.5c3.8,0,6-2.9,5.9-6h-0.1
	c-0.6,1.2-1.4,2.3-2.5,2.9V21l1.5-1.2l-1.5-1.2v-2.9C14.3,15.7,15.7,14.8,15.7,13L15.7,13z M7.8,23.4L6.7,24
	c-0.7-0.9-1.1-2.1-1.1-3.6c0-0.7,0.1-1.5,0.3-2.1l1.9-0.9L7.8,23.4L7.8,23.4z M25.3,18.2l-0.7,0.6l-2.2-2l-2.6,2v-7.6l-3.5,2.4
	c0.4,0.1,0.9,0.4,0.9,1.3v10.6L16,26.4l0.1,0.1l0.6-0.4l2.1,1.9l2.8-1.8l-0.1-0.2l-0.7,0.5l-1-1v-6.4l0.7-0.5l1.5,1.3v5.6
	c0,3.5-0.8,4.3-2.4,4.8v0.1c2.6,0.1,5-0.8,5-5.3v-6l0.8-0.7L25.3,18.2L25.3,18.2z M30,27.9l4-3.2l-0.1-0.2l-2.1,1.7l-2.5-1.9v-1.2
	l4.2-3l-2.1-3.3l-4.7,2.6v6.1l-0.9,0.7l0.1,0.1l0.9-0.7L30,27.9L30,27.9z M29.3,22.8v-4.6l2,3.2L29.3,22.8L29.3,22.8z M50.8,12.2
	c0-0.3-0.1-0.5-0.2-0.9h-0.1c-0.3,0.8-0.6,1.2-1.5,1.2c-0.8,0-1.4-0.5-1.8-0.8c0,0-2.7,3.1-2.7,3.1l0.1,0.1l0.7-0.9
	c0.6,0.4,1.1,1,2.4,1v7.8l-5.4-9.4c-0.4-0.7-1.1-1.8-2.4-1.8c-1.4,0-2.6,1.3-2.4,3.4h0.1c0.1-0.5,0.4-1.2,1.1-1.2
	c0.5,0,0.9,0.5,1.2,0.9v3c-1.7,0-2.6,0.8-2.6,2.1c0,0.6,0.4,1.8,1.5,1.9v-0.1c-0.2-0.2-0.3-0.3-0.3-0.6c0-0.5,0.4-0.8,1.1-0.8
	c0.1,0,0.3,0,0.4,0v3.9c-2,0-3.5,1.1-3.5,3c0,1.8,1.5,2.6,3.1,2.5v-0.1c-1-0.1-1.5-0.6-1.5-1.4c0-0.8,0.6-1.2,1.3-1.2
	c0.7,0,1.3,0.5,1.8,1l2.7-3l-0.1-0.1L43,25.7c-1-0.9-1.7-1.3-2.8-1.5v-9.3l7.5,13.1H48v-13C49.5,14.8,50.8,13.8,50.8,12.2L50.8,12.2
	z M53.3,27.9l4-3.2l-0.1-0.2l-2.1,1.7l-2.5-1.9V23l4.2-3l-2.1-3.3l-4.7,2.6v6.1l-0.9,0.7l0.1,0.1l0.9-0.7L53.3,27.9L53.3,27.9z
	 M52.7,22.8v-4.6l2,3.2L52.7,22.8L52.7,22.8z M71.7,17.9l-0.6,0.5l-1.8-1.5l-2.1,1.8l0.8,0.8v6.9L66,25v-5.6l0.7-0.5l-2.1-2l-2,1.8
	l0.8,0.8v6.7l-0.1,0.1l-2-1.4v-5.5c0-1.3-0.7-1.7-1.4-2.1c-0.7-0.4-1.1-0.8-1.1-1.4c0-0.7,0.6-1,0.8-1.1c-0.7,0-2.7,0.7-2.7,2.5
	c0,0.9,0.4,1.3,0.9,1.8c0.5,0.4,0.9,0.9,0.9,1.6v5.4l-1,0.7l0.1,0.1l0.9-0.7l2.4,1.9l2.3-1.6L66,28l4.9-2.9v-6.3l1.1-0.8L71.7,17.9
	L71.7,17.9z M88,12.6l-0.9,0.8L85,11.6l-2.8,2.3v-2.1h-0.2V27c-0.3,0-1-0.2-1.7-0.4V14c0-0.9-0.7-2.2-2.3-2.2
	c-1.7,0-2.7,1.4-2.7,2.6h0.1c0.1-0.6,0.5-1.1,1-1.1c0.6,0,1.1,0.4,1.1,1.6v3.6c-1.6,0.1-2.5,1.1-2.5,2.1c0,0.6,0.4,1.7,1.6,1.8v-0.1
	c-0.4-0.2-0.5-0.4-0.5-0.6c0-0.5,0.5-0.7,1.2-0.7h0.2v5.8c-1.4,0.5-2,1.4-2,2.5c0,1.5,1.2,2.8,3.1,2.8c1.3,0,2.2-0.2,3.4-0.5
	c1-0.2,2-0.4,2.5-0.4c0.7,0,1,0.3,1,0.8c0,0.7-0.3,1-0.6,1.1v0.1c1.5-0.3,2.4-1.2,2.4-2.5c0-1.4-1.4-2.3-2.8-2.3
	c-0.8,0-2.2,0.3-3.3,0.5c-1.3,0.3-2.4,0.4-2.8,0.4c-0.7,0-1.4-0.3-1.4-1.1c0-0.8,0.7-1.4,2.2-1.4c0.9,0,1.7,0.1,2.8,0.4
	c1.1,0.3,1.9,0.6,2.9,0.6c1.4,0,2.5-0.5,2.5-2.5V13.7l1-0.9L88,12.6L88,12.6z M84.2,18.7c-0.3,0.3-0.5,0.5-1,0.5
	c-0.5,0-0.8-0.3-1-0.5v-4.6l0.7-0.5l1.4,1.1V18.7L84.2,18.7z M84.2,20.9c-0.2-0.2-0.5-0.4-1-0.4s-0.8,0.3-1,0.4V19
	c0.2,0.2,0.5,0.4,1,0.4s0.8-0.2,1-0.4V20.9L84.2,20.9z M84.2,25.5c0,0.7-0.4,1.6-1.4,1.6c-0.2,0-0.5,0-0.7,0v-5.9
	c0.2-0.2,0.5-0.5,1-0.5s0.7,0.2,1,0.5V25.5L84.2,25.5z M92.1,27.9l4.5-2.8V19l-2.9-2.1l-4.5,2.6v6.1l-0.9,0.7l0.1,0.1l0.7-0.6
	L92.1,27.9L92.1,27.9z M91.8,24.7v-6.6l2.3,1.7v6.5L91.8,24.7L91.8,24.7z M105.2,16.9c-0.4,0.3-0.7,0.4-1,0.4s-0.8-0.2-1-0.5
	c0,0-1.7,1.8-1.7,1.8l-1.7-1.8l-2.8,1.9l0.1,0.2l0.7-0.5l1,1.1v6l-1.2,0.9l0.1,0.1l0.6-0.4l2.2,1.9l2.8-1.9l-0.1-0.1l-0.7,0.4
	l-1.1-1.1v-6.5c0.5,0.5,1,1,1.6,1C104.3,19.8,105.1,18.4,105.2,16.9L105.2,16.9z M115.9,25.8l-0.8,0.5l-4.7-7l0.3-0.4
	c0.5,0.3,1,0.7,1.9,0.7s2.2-1,2.3-2.9c-0.3,0.4-0.7,0.7-1.5,0.7c-0.6,0-1.1-0.4-1.5-0.7l-3.2,4.7l4.2,6.4l3.1-2L115.9,25.8
	L115.9,25.8z M110.2,25.9l-0.7,0.5l-1-1V11.2l-3.5,2.4c0.4,0.1,0.9,0.4,0.9,1.3v10.6l-1.2,0.9l0.1,0.1l0.6-0.4l2.1,1.9l2.8-1.8
	L110.2,25.9L110.2,25.9z M130.8,13c0-1.8-1.7-2.4-3.2-2.3v0.2c0.9,0.1,1.5,0.4,1.5,1c0,0.4-0.3,0.9-1.1,0.9c-0.7,0-1.8-0.4-2.9-0.7
	c-1.2-0.4-2.3-0.8-3.2-0.8c-1.8,0-3.2,1.4-3.2,3c0,1.4,1.1,1.8,1.4,2l0-0.1c-0.3-0.2-0.4-0.4-0.4-1c0-0.5,0.4-1.1,1.3-1.1
	c0.8,0,1.9,0.4,3.4,0.8c1.3,0.4,2.6,0.7,3.4,0.8v2.9l-1.4,1.2l1.4,1.2v4c-0.7,0.4-1.6,0.6-2.3,0.6c-1.4,0-2.6-0.4-3.6-1.5l3.8-1.8
	v-6.4l-4.7,2.1c0.5-1.2,1.4-2.1,2.4-2.8l0-0.1c-2.8,0.7-5.3,3.3-5.3,6.4c0,3.8,3,6.5,6.5,6.5c3.8,0,6-2.9,5.9-6h-0.1
	c-0.6,1.2-1.4,2.3-2.5,2.9V21l1.5-1.2l-1.5-1.2v-2.9C129.4,15.7,130.8,14.8,130.8,13L130.8,13z M122.9,23.4l-1.1,0.6
	c-0.7-0.9-1.1-2.1-1.1-3.6c0-0.7,0.1-1.5,0.3-2.1l1.9-0.9L122.9,23.4L122.9,23.4z M133.6,12.3l-1.9,1.6l1.7,1.9l1.9-1.6L133.6,12.3
	L133.6,12.3z M136.6,25.9l-0.7,0.5l-1-1V19l0.8-0.7l-0.1-0.1l-0.7,0.5l-1.6-1.9l-2.7,1.8l0.1,0.2l0.7-0.4l0.9,1.1v6l-1.2,0.9
	l0.1,0.1l0.6-0.4l2.1,1.9l2.8-1.8L136.6,25.9L136.6,25.9z M151.5,25.8l-0.7,0.4l-1.1-1V19l0.8-0.7l-0.1-0.1l-0.7,0.6l-2.2-2
	l-2.5,1.9l-2.2-1.9l-2.5,1.9l-1.7-1.9l-2.7,1.8l0.1,0.2l0.7-0.4l1,1.1v5.9l-0.7,0.7l2.1,1.8l2.1-1.8l-0.8-0.8V19l0.6-0.4l1.5,1.3
	v5.5l-0.7,0.7l2.1,1.8l2-1.8l-0.8-0.8V19l0.5-0.4l1.5,1.4v5.4l-0.6,0.7l2.1,2l2.8-1.9L151.5,25.8L151.5,25.8z M159.3,24.5l-2.1,1.7
	l-2.5-1.9v-1.2l4.2-3l-2.1-3.3l-4.7,2.6v6.2l3.2,2.3l4-3.2L159.3,24.5L159.3,24.5z M154.7,22.8v-4.6l2,3.2L154.7,22.8L154.7,22.8z
	 M167.4,21.9l-1.8-1.4c1.2-1.1,1.6-2.4,1.6-3.3c0-0.1,0-0.4,0-0.6h-0.1c-0.2,0.5-0.7,0.9-1.4,0.9c-0.7,0-1.1-0.4-1.6-0.9L160,19v3.3
	l1.6,1.2c-1.6,1.4-1.9,2.3-1.9,3.1c0,0.8,0.5,1.5,1.3,1.8l0.1-0.1c-0.2-0.2-0.4-0.3-0.4-0.7c0-0.3,0.3-0.8,1-0.8
	c0.9,0,1.4,0.6,1.8,1c0,0,3.9-2.4,3.9-2.4V21.9L167.4,21.9z M166.5,19.2c-0.6,1.1-2,2.2-2.8,2.8l-1-0.8V18c0.4,0.9,1.2,1.6,2.3,1.6
	C165.6,19.6,166,19.4,166.5,19.2L166.5,19.2z M164.8,26.5c-0.5-1.1-1.4-1.8-2.6-1.8c-0.3,0-1.1,0-1.8,0.4c0.4-0.7,1.7-2,3.3-2.9
	l1.1,0.9V26.5L164.8,26.5z"/>
</svg>
