<?xml version="1.0" encoding="utf-8"?>
<!-- Generator: Adobe Illustrator 21.0.0, SVG Export Plug-In . SVG Version: 6.00 Build 0)  -->
<svg version="1.1" id="Layer_1" xmlns="http://www.w3.org/2000/svg" xmlns:xlink="http://www.w3.org/1999/xlink" x="0px" y="0px"
	 viewBox="0 0 97.5 43" style="enable-background:new 0 0 97.5 43;" xml:space="preserve">
<style type="text/css">
	.st0{opacity:0.75;}
	.st1{fill:#808285;}
</style>
<g class="st0">
	<polygon class="st1" points="93.4,35.6 93.4,34.2 92.9,34.2 92.9,34 94.2,34 94.2,34.2 93.7,34.2 93.7,35.6 	"/>
	<g>
		<path class="st1" d="M94.4,35.6V34h0.3l0.4,1.1c0,0.1,0.1,0.2,0.1,0.2c0-0.1,0-0.1,0.1-0.3l0.4-1.1h0.3v1.6h-0.2v-1.3l-0.5,1.3H95
			l-0.4-1.4v1.4L94.4,35.6L94.4,35.6z"/>
		<path class="st1" d="M34.2,22C34.2,30.8,27,38,18.1,38S2,30.8,2,22S9.2,5.9,18.1,5.9S34.2,13.1,34.2,22"/>
		<path class="st1" d="M37.5,16.6V8.8H41v6.8c0,1.3,0.1,2.6,1.9,2.6c1.8,0,1.9-1.3,1.9-2.6V8.8h3.5v7.8c0,3-1.9,4.7-5.4,4.7
			C39.4,21.2,37.5,19.6,37.5,16.6"/>
		<path class="st1" d="M49.3,19.4l1.7-2.3c0.6,0.7,1.7,1.4,2.9,1.4c0.9,0,1.4-0.4,1.4-1.1c0-0.8-0.8-1.1-2.1-1.5
			c-1.8-0.5-3.3-1.5-3.3-3.5c0-2.3,1.9-3.9,4.6-3.9c1.9,0,3.3,0.6,4.2,1.4L57,12.3c-0.5-0.6-1.4-1.1-2.4-1.1c-0.9,0-1.3,0.4-1.3,0.8
			c0,0.8,0.9,1,1.9,1.3c2,0.6,3.5,1.5,3.5,3.8c0,2.3-1.7,4.1-4.7,4.1C51.8,21.2,50,20.2,49.3,19.4"/>
		<path class="st1" d="M66.7,16.4l-0.9-2.9c-0.2-0.6-0.4-1.3-0.4-1.8h-0.1c-0.1,0.5-0.2,1.2-0.4,1.8l-1,2.9H66.7z M63.4,8.8h3.8
			L71.8,21h-3.6l-0.6-1.8H63L62.5,21h-3.5L63.4,8.8z"/>
	</g>
	<polygon class="st1" points="40.6,26.2 37.6,26.2 37.6,23.4 47.1,23.4 47.1,26.2 44.1,26.2 44.1,35.6 40.6,35.6 	"/>
	<g>
		<path class="st1" d="M57.2,29.5c0-2.2-1.4-3.3-3.1-3.3c-1.7,0-3.1,1.1-3.1,3.3c0,2.2,1.4,3.3,3.1,3.3
			C55.7,32.8,57.2,31.7,57.2,29.5 M47.4,29.5c0-3,2.2-6.4,6.7-6.4c4.6,0,6.7,3.4,6.7,6.4c0,3-2.2,6.3-6.7,6.3
			C49.5,35.8,47.4,32.5,47.4,29.5"/>
		<path class="st1" d="M65.5,32.8h0.7c2.2,0,3.4-1.1,3.4-3.3s-1.2-3.3-3.4-3.3h-0.7L65.5,32.8L65.5,32.8z M62,23.4h4.5
			c4.3,0,6.8,2.3,6.8,6.1c0,3.7-2.5,6.1-6.8,6.1H62V23.4z"/>
		<path class="st1" d="M80.6,31.1l-1-2.9c-0.2-0.6-0.4-1.3-0.4-1.8h-0.1c-0.1,0.5-0.2,1.2-0.4,1.8l-1,2.9H80.6z M77.4,23.4h3.8
			l4.5,12.2h-3.6l-0.6-1.8h-4.6l-0.5,1.8h-3.5L77.4,23.4z"/>
		<path class="st1" d="M87.9,31.3l-4.6-7.9h3.8l1.6,3c0.3,0.6,0.8,1.6,1,2.3h0.1c0.1-0.6,0.6-1.6,0.9-2.3l1.6-3h3.7l-4.5,7.9v4.3
			h-3.7V31.3z"/>
	</g>
</g>
</svg>
