<?xml version="1.0" encoding="utf-8"?>
<!-- Generator: Adobe Illustrator 21.0.0, SVG Export Plug-In . SVG Version: 6.00 Build 0)  -->
<svg version="1.1" id="Layer_1" xmlns="http://www.w3.org/2000/svg" xmlns:xlink="http://www.w3.org/1999/xlink" x="0px" y="0px"
	 viewBox="0 0 197.8 29.8" style="enable-background:new 0 0 197.8 29.8;" xml:space="preserve">
<style type="text/css">
	.st0{fill:#3A499F;}
	.st1{fill:#F15F2A;}
</style>
<g>
	<path class="st0" d="M12.7,11.8c8.2-2.9,13.7,0.9,13.7,0.9c-6-8.5-17.2-4.1-16.9-2.7C10,11.5,12.7,11.8,12.7,11.8z M18.6,12.8
		c-6.3-0.3-7.3,0-9.4-1.7C7,9.4,3.7,10.3,3.5,12.4l-2.6,1.1l1-0.1c0,0,2.2-0.6,4.4,1.6c2.2,2.2,7,3.4,13.4,1.8
		c6.4-1.6,9.2,1.2,9.2,1.2S24.9,13.1,18.6,12.8z M12,18.4c0,0-3.3-0.5-4.4-1.6c0,0,0.6,6.8,9.1,6.6C16.7,23.4,13.3,22.5,12,18.4z"/>
	<g>
		<path class="st0" d="M196.2,20.2c-0.6-0.8-1.4-1.4-2.5-2c-1.1-0.6-2.5-1-4.3-1.4c-1.5-0.3-2.6-0.6-3.5-0.9c-0.8-0.2-1.5-0.5-2-0.9
			c-0.5-0.4-0.7-0.8-0.7-1.4c0-0.6,0.3-1.1,1-1.5c0.7-0.4,1.5-0.6,2.6-0.6c1,0,1.8,0.2,2.4,0.5c0.6,0.3,1.1,0.7,1.5,1.3
			c0.5,0.6,1,1.1,1.4,1.4c0.4,0.3,0.9,0.5,1.5,0.5c0.8,0,1.4-0.2,1.9-0.6c0.4-0.4,0.7-0.9,0.7-1.5c0-0.6-0.2-1.1-0.6-1.7
			c-0.4-0.6-1-1.1-1.8-1.6c-0.8-0.5-1.8-0.9-2.9-1.2c-1.2-0.3-2.5-0.4-4-0.4c-1.9,0-3.5,0.3-4.8,0.9c-1.3,0.6-2.3,1.3-3,2.3
			c-0.7,1-1,2-1,3c0,1.2,0.4,2.2,1.1,3c0.7,0.8,1.7,1.5,2.9,2c1.2,0.5,2.8,1,4.8,1.4c1.7,0.4,3,0.8,3.7,1.2c0.8,0.4,1.1,1.1,1.1,2.1
			c0,0.6-0.4,1.2-1.1,1.6c-0.7,0.5-1.7,0.7-2.8,0.7c-1.4,0-2.5-0.2-3.3-0.7c-0.8-0.5-1.5-1.2-2.1-2.1c-0.3-0.5-0.6-0.9-0.9-1.2
			c-0.3-0.3-0.8-0.4-1.4-0.4c-0.7,0-1.2,0.2-1.7,0.6c-0.2,0.2-0.3,0.4-0.5,0.6c0-0.1,0-0.2,0-0.3c0-1-0.3-1.8-0.9-2.6
			c-0.6-0.8-1.4-1.4-2.5-2c-1.1-0.6-2.6-1-4.3-1.4c-1.5-0.3-2.7-0.6-3.5-0.9c-0.8-0.2-1.5-0.5-2-0.9c-0.5-0.4-0.7-0.8-0.7-1.4
			c0-0.6,0.3-1.1,1-1.5c0.7-0.4,1.5-0.6,2.6-0.6c1,0,1.8,0.2,2.4,0.5c0.6,0.3,1.1,0.7,1.5,1.3c0.5,0.6,1,1.1,1.4,1.4
			c0.4,0.3,0.9,0.5,1.5,0.5c0.8,0,1.4-0.2,1.9-0.6c0.4-0.4,0.7-0.9,0.7-1.5c0-0.6-0.2-1.1-0.6-1.7c-0.4-0.6-1-1.1-1.8-1.6
			c-0.8-0.5-1.8-0.9-2.9-1.2c-1.2-0.3-2.5-0.4-4-0.4c-1.9,0-3.5,0.3-4.8,0.9c-1.3,0.5-2.2,1.3-2.9,2.2c-0.7-0.7-1.4-1.2-2.4-1.7
			c-1.6-0.9-3.6-1.3-5.9-1.3c-1.8,0-3.4,0.3-4.8,0.8c-1.4,0.5-2.6,1.3-3.6,2.2c-1,1-1.7,2.1-2.2,3.5c-0.5,1.3-0.8,2.8-0.8,4.4
			c0,2.4,0.5,4.4,1.6,6.1h-10.2V4.1c0-1.2-0.3-2.1-0.9-2.7c-0.6-0.6-1.3-0.9-2.3-0.9c-0.9,0-1.7,0.3-2.2,0.9
			c-0.6,0.6-0.8,1.5-0.8,2.6v22.1c0,1.3,0.3,2.2,0.9,2.7c0.6,0.6,1.6,0.8,2.9,0.8H144c1,0,1.8-0.2,2.3-0.7c0.1-0.1,0.2-0.2,0.2-0.2
			c1.6,0.6,3.3,0.9,5.4,0.9c1.6,0,3.1-0.2,4.4-0.6c1.3-0.4,2.3-0.9,3.1-1.5c0.2-0.1,0.4-0.3,0.5-0.4c0.7,0.6,1.6,1.2,2.7,1.6
			c1.5,0.6,3.2,0.9,5.2,0.9c2.1,0,3.9-0.3,5.4-0.8c1.5-0.5,2.6-1.3,3.4-2.4c0.5-0.6,0.8-1.3,0.9-2.1c0.1,0.7,0.4,1.5,1,2.2
			c0.7,0.9,1.8,1.6,3.2,2.2c1.5,0.6,3.2,0.9,5.2,0.9c2.1,0,3.9-0.3,5.4-0.8c1.5-0.5,2.6-1.3,3.4-2.4c0.8-1,1.1-2.3,1.1-3.8
			C197.1,21.8,196.8,20.9,196.2,20.2z M147.7,13.2c0.9-0.9,2.1-1.4,3.6-1.4c1.5,0,2.8,0.4,3.7,1.3c0.9,0.9,1.5,2.2,1.6,4H146
			C146.2,15.4,146.8,14.1,147.7,13.2z M171.2,25.6c-0.7,0.5-1.7,0.7-2.8,0.7c-1.4,0-2.5-0.2-3.3-0.7c-0.8-0.5-1.5-1.2-2.1-2.1
			c-0.3-0.5-0.6-0.9-0.9-1.2c-0.3-0.3-0.8-0.4-1.4-0.4c-0.7,0-1.2,0.2-1.7,0.6c0,0,0,0,0,0c-0.1,0.1-0.3,0.1-0.4,0.2
			c-0.7,0.6-1.3,1.1-1.8,1.5c-0.5,0.4-1,0.7-1.5,1c-0.5,0.3-1.1,0.6-1.7,0.7c-0.6,0.1-1.2,0.2-1.9,0.2c-1,0-2-0.2-2.9-0.7
			c-0.9-0.5-1.6-1.2-2.1-2.1c-0.5-0.9-0.8-2-0.8-3.2h11.4c1.5,0,2.7-0.2,3.6-0.6c0.4-0.2,0.6-0.4,0.8-0.8c0.3,0.1,0.5,0.3,0.8,0.4
			c1.2,0.5,2.8,1,4.8,1.4c1.7,0.4,3,0.8,3.7,1.2c0.8,0.4,1.1,1.1,1.1,2.1C172.3,24.6,172,25.1,171.2,25.6z"/>
		<g>
			<path class="st0" d="M120.7,9.3v0.5h0.6c0.6,0,1.2,0.1,1.5,0.3c0.4,0.2,0.7,0.5,0.8,0.9c0.2,0.4,0.3,1,0.3,1.7
				c0,1.3-0.3,1.9-0.9,1.9c-0.2,0-0.4-0.1-0.5-0.2c-0.1-0.1-0.2-0.3-0.2-0.5c0-0.1,0-0.2,0-0.4c0-0.2,0-0.4,0-0.5
				c0-0.4-0.1-0.6-0.3-0.8c-0.2-0.1-0.5-0.2-0.9-0.2h-0.5v0.5c0,0.8-0.2,1.2-0.7,1.2c-0.3,0-0.5-0.1-0.6-0.3
				c-0.1-0.2-0.1-0.5-0.1-0.9V12h-5.5c-0.4,0-0.7-0.1-0.9-0.3c-0.2-0.2-0.3-0.5-0.3-0.8c0-0.3,0.1-0.6,0.3-0.8
				c0.2-0.2,0.5-0.3,0.9-0.3h5.5V9.2c0-0.3,0.1-0.6,0.2-0.7c0.1-0.2,0.3-0.3,0.5-0.3C120.4,8.2,120.7,8.6,120.7,9.3z"/>
			<path class="st0" d="M116.7,22.4c-0.6,0-1.2-0.1-1.7-0.3c-0.5-0.2-1-0.5-1.3-0.9c-0.4-0.4-0.7-0.8-0.9-1.4
				c-0.2-0.5-0.3-1.1-0.3-1.8c0-0.7,0.1-1.2,0.3-1.8c0.2-0.5,0.5-1,0.9-1.4c0.4-0.4,0.8-0.7,1.3-0.9c0.5-0.2,1.1-0.3,1.7-0.3
				c0.6,0,1.2,0.1,1.7,0.3c0.5,0.2,1,0.5,1.3,0.9c0.4,0.4,0.6,0.8,0.9,1.4c0.2,0.5,0.3,1.1,0.3,1.8c0,0.7-0.1,1.2-0.3,1.8
				c-0.2,0.5-0.5,1-0.9,1.4c-0.4,0.4-0.8,0.7-1.3,0.9C117.9,22.3,117.3,22.4,116.7,22.4z M116.7,20.3c0.8,0,1.5-0.2,2-0.6
				c0.5-0.4,0.7-0.9,0.7-1.6c0-0.4-0.1-0.8-0.3-1.1c-0.2-0.3-0.5-0.6-0.9-0.7c-0.4-0.2-0.9-0.3-1.4-0.3c-0.5,0-1,0.1-1.4,0.3
				c-0.4,0.2-0.7,0.4-0.9,0.7c-0.2,0.3-0.3,0.7-0.3,1.1c0,0.7,0.2,1.2,0.7,1.6C115.2,20.1,115.9,20.3,116.7,20.3z"/>
			<path class="st0" d="M115.5,26h-1.7c-0.4,0-0.7-0.1-0.9-0.3c-0.2-0.2-0.3-0.5-0.3-0.8c0-0.3,0.1-0.6,0.3-0.8
				c0.2-0.2,0.5-0.3,0.9-0.3h5.7c0.9,0,1.4,0.4,1.4,1c0,0.4-0.1,0.6-0.3,0.8c-0.2,0.2-0.5,0.2-1,0.3c0.4,0.3,0.7,0.5,1,0.8
				c0.2,0.3,0.3,0.6,0.3,1.1c0,0.5-0.1,0.9-0.3,1.3c-0.2,0.4-0.5,0.6-0.9,0.6c-0.3,0-0.5-0.1-0.6-0.3c-0.2-0.2-0.2-0.4-0.2-0.6
				c0-0.1,0-0.3,0.1-0.6c0.1-0.3,0.1-0.6,0.1-0.8c0-0.3-0.1-0.6-0.2-0.8c-0.2-0.2-0.4-0.4-0.7-0.5c-0.3-0.1-0.7-0.2-1.1-0.2
				C116.6,26,116.1,26,115.5,26z"/>
		</g>
		<path class="st1" d="M88.6,9c-1.1-0.6-2.3-0.8-3.5-0.8c-1.2,0-2.1,0.3-2.8,0.8c-0.7,0.6-1.4,1.4-2.1,2.5c0-1.1-0.3-1.9-0.7-2.5
			c-0.4-0.6-1.1-0.8-2-0.8c-1.8,0-2.8,1.2-2.8,3.6v14.8c0,1.1,0.3,1.9,0.8,2.4c0.5,0.5,1.2,0.8,2,0.8c0.8,0,1.5-0.3,2-0.8
			c0.5-0.5,0.8-1.3,0.8-2.4v-4.4c0-1.6,0.1-2.9,0.2-4.1c0.1-1.1,0.3-2.1,0.6-2.9c0.3-0.8,0.7-1.4,1.2-1.8c0.5-0.4,1.2-0.6,2-0.6
			c0.6,0,1.3,0.1,2.1,0.4c0.8,0.2,1.3,0.4,1.5,0.4c0.6,0,1.1-0.2,1.5-0.6c0.5-0.4,0.7-1,0.7-1.6C90.3,10.3,89.7,9.6,88.6,9z
			 M110.4,9c-0.5-0.5-1.2-0.8-2-0.8c-0.8,0-1.5,0.3-2,0.8c-0.5,0.5-0.8,1.3-0.8,2.4v6.5c0,2.5-0.2,4.2-0.5,5c-0.4,0.9-1,1.6-1.9,2.1
			c-0.8,0.5-1.7,0.8-2.7,0.8c-1,0-1.8-0.2-2.3-0.7c-0.6-0.5-1-1.1-1.2-2c-0.2-0.8-0.3-1.9-0.3-3.1v-8.5c0-1.1-0.3-1.8-0.8-2.4
			c-0.5-0.5-1.2-0.8-2.1-0.8c-0.8,0-1.5,0.3-2,0.8c-0.5,0.5-0.8,1.3-0.8,2.4v10.5c0,2.1,0.4,3.7,1.1,4.9c0.6,0.9,1.4,1.7,2.5,2.2
			c1.1,0.5,2.3,0.8,3.7,0.8c1.1,0,2.1-0.1,3-0.4c0.9-0.3,1.7-0.7,2.4-1.2c0.7-0.5,1.5-1.2,2.1-2v0.7c0,0.9,0.3,1.7,0.8,2.2
			c0.5,0.5,1.1,0.8,1.9,0.8c0.8,0,1.4-0.3,1.9-0.8c0.5-0.5,0.7-1.3,0.7-2.3V11.3C111.2,10.3,110.9,9.5,110.4,9z M72.7,19.7
			c0.8-0.4,1.2-1.3,1.2-2.6c0-1.4-0.4-2.9-1.2-4.2c-0.8-1.4-2-2.5-3.6-3.4c-1.6-0.9-3.5-1.3-5.7-1.3c-1.7,0-3.2,0.3-4.6,0.8
			c-1.3,0.5-2.5,1.2-3.4,2.1c0.1-0.5,0.1-1.1,0.1-1.7c0-1.4-0.2-2.6-0.7-3.7c-0.5-1.1-1.2-2-2.1-2.8c-0.9-0.8-2-1.3-3.2-1.6
			c-1.3-0.3-3.1-0.5-5.4-0.5h-7.9c-1.4,0-2.3,0.3-3,0.8c-0.6,0.5-0.9,1.5-0.9,2.7v8h6.2V5.1h4.2c2.8,0,4.6,0.4,5.5,1.3
			c0.8,0.8,1.2,1.8,1.2,3.1c0,1.1-0.3,1.9-0.8,2.6c-0.5,0.7-1.3,1.1-2.2,1.4c-1,0.3-2.2,0.4-3.6,0.4l-13.1,0l-1.2,2l1.1,2.1h2.9v8.4
			c0,1.1,0.3,2,0.9,2.6c0.6,0.6,1.3,0.9,2.2,0.9c0.9,0,1.6-0.3,2.2-0.9c0.6-0.6,0.9-1.5,0.9-2.6v-8h5.7c3.8,0,6.6-0.7,8.5-2.3
			c0,0,0,0,0,0c-0.2,1-0.4,2-0.4,3c0,3.3,1,6,3,7.9c2,1.9,4.8,2.9,8.5,2.9c1.6,0,3-0.2,4.2-0.6c1.2-0.4,2.2-0.9,3-1.5
			c0.8-0.6,1.4-1.2,1.8-1.8c0.4-0.6,0.6-1.2,0.6-1.7c0-0.5-0.2-1-0.5-1.3c-0.4-0.3-0.8-0.4-1.4-0.4c-0.5,0-1,0.1-1.2,0.3
			c-0.7,0.6-1.3,1.1-1.7,1.5c-0.4,0.4-0.9,0.7-1.5,1c-0.5,0.3-1.1,0.5-1.6,0.7c-0.6,0.1-1.2,0.2-1.9,0.2c-1,0-1.9-0.2-2.8-0.7
			c-0.8-0.5-1.5-1.2-2-2.1c-0.5-0.9-0.8-2-0.8-3.2h11.1C70.8,20.3,71.9,20.1,72.7,19.7z M58.2,17.3c0.2-1.8,0.7-3.1,1.6-4
			c0.9-0.9,2.1-1.4,3.5-1.4c1.5,0,2.7,0.4,3.6,1.3c0.9,0.9,1.4,2.2,1.6,4L58.2,17.3L58.2,17.3z"/>
	</g>
</g>
</svg>
