<?xml version="1.0" encoding="utf-8"?>
<!-- Generator: Adobe Illustrator 21.0.0, SVG Export Plug-In . SVG Version: 6.00 Build 0)  -->
<svg version="1.1" id="Layer_1" xmlns="http://www.w3.org/2000/svg" xmlns:xlink="http://www.w3.org/1999/xlink" x="0px" y="0px"
	 viewBox="0 0 163 32.6" style="enable-background:new 0 0 163 32.6;" xml:space="preserve">
<style type="text/css">
	.st0{fill:none;stroke:#231F20;stroke-width:0.5;stroke-miterlimit:10;}
	.st1{fill:#424143;}
	.st2{fill:#13B57A;}
	.st3{fill:#055229;}
	.st4{fill:none;stroke:#010101;stroke-width:0.5;stroke-miterlimit:10;}
</style>
<g>
	<rect x="0.2" y="0.3" class="st0" width="162.5" height="32.1"/>
	<g>
		<path class="st1" d="M96.2,12.6h7.8v1.5h-3.1v8.2h-1.7v-8.2h-3.1V12.6z M103.6,15.3h1.5v1.3l0,0c0.1-0.2,0.2-0.4,0.3-0.6
			c0.2-0.2,0.3-0.4,0.5-0.5c0.2-0.2,0.4-0.3,0.6-0.4c0.2-0.1,0.5-0.2,0.7-0.2c0.2,0,0.3,0,0.4,0s0.2,0,0.2,0v1.5
			c-0.1,0-0.2-0.1-0.4-0.1s-0.2,0-0.4,0c-0.3,0-0.5,0.1-0.7,0.2c-0.2,0.1-0.5,0.3-0.6,0.5c-0.2,0.2-0.3,0.5-0.5,0.7
			c-0.2,0.3-0.2,0.7-0.2,1v3.3h-1.5L103.6,15.3z M114.8,22.3h-1.5v-1l0,0c-0.2,0.4-0.5,0.7-0.9,0.9c-0.4,0.2-0.7,0.3-1.2,0.3
			c-1,0-1.6-0.2-2-0.7c-0.5-0.5-0.6-1.2-0.6-2v-4.4h1.5v4.3c0,0.6,0.2,1,0.4,1.3s0.6,0.4,1,0.4c0.3,0,0.6-0.1,0.8-0.2
			c0.2-0.1,0.4-0.2,0.5-0.4c0.2-0.2,0.2-0.4,0.3-0.6c0.1-0.2,0.1-0.5,0.1-0.7v-4.1h1.5V22.3L114.8,22.3z M117.5,20.1
			c0.1,0.5,0.2,0.7,0.5,1c0.3,0.2,0.7,0.3,1.1,0.3c0.2,0,0.3,0,0.5-0.1c0.2,0,0.4-0.1,0.5-0.2c0.2-0.1,0.3-0.2,0.4-0.3
			c0.1-0.2,0.2-0.3,0.2-0.5c0-0.2-0.1-0.4-0.2-0.5c-0.2-0.2-0.3-0.2-0.5-0.3c-0.2-0.1-0.5-0.2-0.7-0.2c-0.3-0.1-0.5-0.2-0.8-0.2
			c-0.3,0-0.6-0.2-0.8-0.2c-0.3-0.1-0.5-0.2-0.7-0.4c-0.2-0.2-0.4-0.4-0.5-0.6s-0.2-0.5-0.2-0.9s0.1-0.7,0.3-1
			c0.2-0.3,0.5-0.5,0.7-0.6c0.3-0.2,0.6-0.3,1-0.4c0.4-0.1,0.7-0.1,1-0.1c0.4,0,0.7,0.1,1,0.2c0.3,0.1,0.7,0.2,0.9,0.4
			c0.3,0.2,0.5,0.4,0.7,0.7c0.2,0.3,0.3,0.6,0.4,1h-1.6c-0.1-0.4-0.2-0.6-0.5-0.7c-0.3-0.2-0.6-0.2-1-0.2c-0.1,0-0.2,0-0.4,0
			c-0.2,0-0.3,0.1-0.5,0.1c-0.2,0.1-0.2,0.2-0.4,0.2c-0.1,0.1-0.2,0.2-0.2,0.4c0,0.2,0.1,0.4,0.2,0.5c0.2,0.2,0.3,0.2,0.5,0.3
			c0.2,0.1,0.5,0.2,0.7,0.2c0.3,0.1,0.6,0.2,0.8,0.2c0.3,0.1,0.6,0.2,0.8,0.2c0.3,0.1,0.5,0.2,0.7,0.4c0.2,0.2,0.4,0.4,0.5,0.6
			c0.2,0.2,0.2,0.5,0.2,0.9c0,0.5-0.1,0.7-0.3,1c-0.2,0.3-0.5,0.5-0.7,0.7c-0.3,0.2-0.7,0.3-1,0.4c-0.4,0.1-0.7,0.2-1.1,0.2
			c-0.5,0-0.9-0.1-1.2-0.2c-0.4-0.1-0.7-0.3-1-0.5c-0.3-0.2-0.5-0.5-0.7-0.7c-0.2-0.3-0.2-0.7-0.3-1.1H117.5L117.5,20.1L117.5,20.1z
			 M122.6,15.3h1.2v-2.1h1.5v2.1h1.4v1.2h-1.4v3.7c0,0.2,0,0.3,0,0.5c0,0.2,0.1,0.2,0.1,0.3c0.1,0.1,0.2,0.2,0.2,0.2
			c0.1,0.1,0.2,0.1,0.5,0.1c0.1,0,0.2,0,0.3,0c0.1,0,0.2,0,0.3-0.1v1.2c-0.2,0-0.4,0.1-0.5,0.1c-0.2,0-0.3,0-0.5,0
			c-0.5,0-0.7-0.1-1-0.2c-0.3-0.1-0.5-0.2-0.6-0.4c-0.2-0.2-0.2-0.4-0.3-0.6c-0.1-0.2-0.1-0.5-0.1-0.8v-4.1h-1.2L122.6,15.3
			L122.6,15.3z M127.7,15.3h1.5v1l0,0c0.2-0.5,0.5-0.7,0.9-0.9c0.4-0.2,0.8-0.3,1.2-0.3c0.6,0,1,0.1,1.5,0.3c0.5,0.2,0.7,0.5,1,0.8
			s0.5,0.7,0.6,1.2c0.1,0.5,0.2,1,0.2,1.5c0,0.5-0.1,1-0.2,1.4c-0.2,0.5-0.3,0.8-0.6,1.2c-0.2,0.4-0.6,0.6-1,0.8
			c-0.4,0.2-0.8,0.3-1.3,0.3c-0.2,0-0.5,0-0.7-0.1c-0.2-0.1-0.5-0.1-0.7-0.2c-0.2-0.1-0.4-0.2-0.6-0.4c-0.2-0.2-0.3-0.3-0.5-0.5l0,0
			V25h-1.5L127.7,15.3L127.7,15.3z M133.1,18.8c0-0.3-0.1-0.6-0.2-1c-0.1-0.3-0.2-0.6-0.4-0.8c-0.2-0.2-0.4-0.5-0.6-0.6
			c-0.2-0.2-0.5-0.2-0.8-0.2c-0.7,0-1.2,0.2-1.5,0.7c-0.3,0.5-0.5,1-0.5,1.8c0,0.4,0.1,0.7,0.2,1c0.1,0.3,0.2,0.6,0.4,0.8
			c0.2,0.2,0.4,0.4,0.6,0.5c0.2,0.2,0.5,0.2,0.8,0.2c0.4,0,0.7-0.1,0.9-0.2c0.2-0.2,0.5-0.4,0.6-0.6c0.2-0.2,0.3-0.5,0.4-0.8
			C133.1,19.4,133.1,19.1,133.1,18.8z M135.9,12.6h1.5v1.5h-1.5V12.6z M135.9,15.3h1.5v7h-1.5V15.3z M138.8,12.6h1.5v9.7h-1.5V12.6z
			 M145,22.5c-0.6,0-1-0.1-1.5-0.3c-0.5-0.3-0.8-0.5-1.1-0.7c-0.3-0.3-0.5-0.7-0.7-1.2c-0.2-0.5-0.2-1-0.2-1.5c0-0.5,0.1-1,0.2-1.5
			c0.2-0.5,0.4-0.8,0.7-1.2c0.3-0.3,0.7-0.6,1.1-0.7c0.5-0.2,1-0.3,1.5-0.3c0.6,0,1,0.1,1.5,0.3c0.5,0.2,0.8,0.5,1.1,0.7
			s0.5,0.7,0.7,1.2c0.2,0.5,0.2,1,0.2,1.5c0,0.5-0.1,1-0.2,1.5c-0.2,0.5-0.4,0.8-0.7,1.2c-0.3,0.3-0.7,0.6-1.1,0.7
			C146.1,22.4,145.6,22.5,145,22.5z M145,21.3c0.4,0,0.7-0.1,0.9-0.2c0.3-0.2,0.5-0.4,0.6-0.6c0.1-0.2,0.3-0.5,0.4-0.8
			s0.2-0.6,0.2-0.9s-0.1-0.6-0.2-0.9c-0.1-0.3-0.2-0.6-0.4-0.8c-0.2-0.2-0.4-0.5-0.6-0.6c-0.3-0.2-0.6-0.2-0.9-0.2s-0.7,0.1-0.9,0.2
			c-0.3,0.2-0.5,0.4-0.6,0.6c-0.1,0.2-0.3,0.5-0.4,0.8s-0.2,0.6-0.2,0.9s0.1,0.6,0.2,0.9c0.1,0.3,0.2,0.6,0.4,0.8
			c0.2,0.2,0.4,0.5,0.6,0.6C144.4,21.3,144.7,21.3,145,21.3z M149,15.3h1.2v-2.1h1.5v2.1h1.4v1.2h-1.4v3.7c0,0.2,0,0.3,0,0.5
			c0,0.2,0.1,0.2,0.1,0.3c0.1,0.1,0.2,0.2,0.2,0.2c0.1,0.1,0.2,0.1,0.5,0.1c0.1,0,0.2,0,0.3,0c0.1,0,0.2,0,0.3-0.1v1.2
			c-0.2,0-0.4,0.1-0.5,0.1s-0.3,0-0.5,0c-0.5,0-0.7-0.1-1-0.2c-0.3-0.1-0.5-0.2-0.6-0.4c-0.2-0.2-0.2-0.4-0.3-0.6
			c-0.1-0.2-0.1-0.5-0.1-0.8v-4.1H149L149,15.3L149,15.3L149,15.3z"/>
		<path class="st2" d="M94.3,12.6h-7.1l-2.2-6.7l-2.2,6.7h-7.1l5.7,4.2l-2.2,6.7l5.7-4.2l5.7,4.2l-2.2-6.7L94.3,12.6z"/>
		<path class="st3" d="M89.1,18.3l-0.5-1.5l-3.5,2.6L89.1,18.3z"/>
	</g>
	<g>
		<path class="st1" d="M10.2,8.8c0.4-0.1,1.1-0.1,1.9-0.1c0.9,0,1.6,0.1,2,0.5c0.4,0.3,0.5,0.7,0.5,1.3c0,0.8-0.5,1.3-1.1,1.5v0
			c0.4,0.2,0.7,0.6,0.8,1.1c0.2,0.7,0.4,1.5,0.5,1.7h-1.4c-0.1-0.2-0.2-0.7-0.4-1.4c-0.2-0.8-0.4-1-1-1h-0.3v2.4h-1.4L10.2,8.8
			L10.2,8.8z M11.6,11.4h0.5c0.7,0,1.1-0.3,1.1-0.9c0-0.5-0.4-0.9-1-0.9c-0.3,0-0.5,0-0.6,0L11.6,11.4z"/>
		<path class="st1" d="M18.2,14.8l-0.1-0.4h0c-0.3,0.3-0.7,0.5-1.3,0.5c-0.9,0-1.5-0.6-1.5-1.4c0-1.1,1.1-1.7,2.6-1.7v0
			c0-0.2-0.1-0.6-0.8-0.6c-0.4,0-1,0.1-1.2,0.3l-0.3-0.9c0.3-0.2,0.9-0.4,1.8-0.4c1.5,0,2,0.9,2,1.9v1.5c0,0.4,0,0.8,0,1.1
			L18.2,14.8L18.2,14.8z M18,12.6c-0.7,0-1.3,0.2-1.3,0.7c0,0.3,0.2,0.5,0.5,0.5c0.4,0,0.6-0.2,0.7-0.5c0-0.1,0-0.1,0-0.2L18,12.6
			L18,12.6z"/>
		<path class="st1" d="M20.5,11.8c0-0.5,0-1,0-1.4h1.2l0,0.6h0c0.2-0.3,0.6-0.7,1.4-0.7c0.9,0,1.6,0.6,1.6,1.9v2.6h-1.4v-2.4
			c0-0.6-0.2-1-0.7-1c-0.4,0-0.6,0.3-0.7,0.5c0,0.1,0,0.2,0,0.4v2.5h-1.4L20.5,11.8L20.5,11.8z"/>
		<path class="st1" d="M27.2,12.2L27.2,12.2c0.1-0.2,0.2-0.3,0.3-0.5l0.9-1.3h1.7l-1.6,1.8l1.9,2.6h-1.7L27.6,13l-0.3,0.4v1.4h-1.4
			V8.4h1.4V12.2z"/>
		<path class="st1" d="M31.7,13c0,0.6,0.6,0.9,1.3,0.9c0.4,0,0.9,0,1.2-0.2l0.2,1c-0.4,0.2-1,0.3-1.6,0.3c-1.5,0-2.4-0.9-2.4-2.2
			c0-1.1,0.7-2.3,2.2-2.3c1.5,0,2,1.1,2,2.2c0,0.2,0,0.4,0,0.5L31.7,13L31.7,13z M33.3,12.1c0-0.3-0.1-0.9-0.8-0.9
			c-0.6,0-0.8,0.5-0.9,0.9H33.3z"/>
		<path class="st1" d="M39.8,8.4v5.1c0,0.5,0,1,0,1.3h-1.2l-0.1-0.6l0,0c-0.3,0.5-0.8,0.8-1.4,0.8c-1.1,0-1.9-0.9-1.9-2.2
			c0-1.5,0.9-2.3,2-2.3c0.5,0,1,0.2,1.2,0.5l0,0V8.4L39.8,8.4L39.8,8.4z M38.4,12.2c0-0.1,0-0.2,0-0.2c-0.1-0.3-0.4-0.7-0.8-0.7
			c-0.6,0-1,0.5-1,1.3c0,0.8,0.4,1.2,1,1.2c0.4,0,0.7-0.3,0.8-0.7c0-0.1,0-0.2,0-0.3L38.4,12.2L38.4,12.2z"/>
		<path class="st2" d="M44.4,14.8l0.4-2.4h-1.1v-1.3H45l0.2-1.6h-1.1V8.3h1.4L45.8,6H47l-0.3,2.3h1.2L48.3,6h1.2l-0.4,2.3h1.1v1.3
			H49l-0.2,1.6h1.1v1.3h-1.3l-0.3,2.4H47l0.4-2.4h-1.2l-0.4,2.4L44.4,14.8L44.4,14.8z M47.4,11.1l0.2-1.6h-1.2l-0.2,1.6H47.4z"/>
		<path class="st2" d="M53.9,7.8L53.9,7.8l-1.8,0.8L51.8,7L54.1,6h1.8v8.8h-2V7.8z"/>
		<path class="st1" d="M11.3,20c0,0.3-0.3,0.7-0.7,0.7S9.8,20.3,9.8,20c0-0.4,0.3-0.7,0.7-0.7C11,19.3,11.3,19.6,11.3,20z M9.9,25.6
			v-4.4h1.4v4.4H9.9z"/>
		<path class="st1" d="M12.4,22.6c0-0.5,0-1,0-1.4h1.2l0,0.6h0c0.2-0.3,0.6-0.7,1.4-0.7c0.9,0,1.6,0.6,1.6,1.9v2.6h-1.4v-2.4
			c0-0.6-0.2-1-0.7-1c-0.4,0-0.6,0.3-0.7,0.5c0,0.1,0,0.2,0,0.3v2.5h-1.4L12.4,22.6L12.4,22.6z"/>
		<path class="st1" d="M21.1,20v1.3h1v1h-1v1.6c0,0.5,0.1,0.8,0.5,0.8c0.2,0,0.3,0,0.4,0v1c-0.2,0.1-0.5,0.1-0.9,0.1
			c-0.4,0-0.8-0.1-1.1-0.3c-0.3-0.3-0.4-0.7-0.4-1.3v-1.8h-0.6v-1h0.6v-1L21.1,20z"/>
		<path class="st1" d="M22.9,19.2h1.4v2.5l0,0c0.1-0.2,0.3-0.3,0.5-0.4c0.2-0.1,0.4-0.2,0.7-0.2c0.9,0,1.6,0.6,1.6,2v2.6h-1.4v-2.4
			c0-0.6-0.2-1-0.7-1c-0.4,0-0.6,0.2-0.7,0.5c0,0.1,0,0.2,0,0.3v2.6h-1.4C22.9,25.6,22.9,19.2,22.9,19.2z"/>
		<path class="st1" d="M29.4,23.9c0,0.6,0.6,0.9,1.3,0.9c0.4,0,0.9,0,1.2-0.2l0.2,1c-0.4,0.2-1,0.3-1.6,0.3c-1.5,0-2.4-0.9-2.4-2.2
			c0-1.1,0.7-2.3,2.2-2.3c1.5,0,2,1.1,2,2.2c0,0.2,0,0.4,0,0.5L29.4,23.9L29.4,23.9z M31,22.9c0-0.3-0.1-0.9-0.8-0.9
			c-0.6,0-0.8,0.5-0.9,0.9H31z"/>
		<path class="st1" d="M35.9,21.2l0.4,1.8c0.1,0.4,0.2,1,0.3,1.5l0,0c0.1-0.5,0.2-1,0.3-1.5l0.4-1.8h1.1l0.4,1.8
			c0.1,0.5,0.2,1,0.3,1.5l0,0c0-0.5,0.1-1,0.3-1.5l0.4-1.8h1.4l-1.4,4.4h-1.3l-0.4-1.6c-0.1-0.4-0.2-0.8-0.3-1.4l0,0
			c-0.1,0.5-0.2,1-0.3,1.4l-0.4,1.6h-1.3l-1.3-4.4L35.9,21.2z"/>
		<path class="st1" d="M46.1,23.4c0,1.6-1.1,2.3-2.3,2.3c-1.3,0-2.3-0.9-2.3-2.2c0-1.4,1-2.3,2.4-2.3C45.2,21.1,46.1,22.1,46.1,23.4
			z M42.9,23.4c0,0.8,0.3,1.3,0.9,1.3c0.5,0,0.9-0.5,0.9-1.3c0-0.7-0.3-1.3-0.9-1.3C43.1,22.1,42.9,22.8,42.9,23.4z"/>
		<path class="st1" d="M47,22.7c0-0.6,0-1.1,0-1.5h1.2l0,0.8h0c0.2-0.6,0.8-0.9,1.2-0.9c0.1,0,0.2,0,0.3,0v1.3c-0.1,0-0.2,0-0.4,0
			c-0.5,0-0.9,0.3-1,0.7c0,0.1,0,0.2,0,0.3v2.2h-1.4L47,22.7L47,22.7z"/>
		<path class="st1" d="M50.4,19.2h1.4v6.4h-1.4V19.2z"/>
		<path class="st1" d="M57.3,19.2v5.1c0,0.5,0,1,0,1.3h-1.2l0-0.6l0,0c-0.3,0.5-0.8,0.8-1.4,0.8c-1.1,0-1.9-0.9-1.9-2.2
			c0-1.5,0.9-2.3,2-2.3c0.5,0,1,0.2,1.2,0.5l0,0v-2.4L57.3,19.2L57.3,19.2z M55.9,23.1c0-0.1,0-0.2,0-0.2c-0.1-0.3-0.4-0.7-0.8-0.7
			c-0.6,0-1,0.5-1,1.3c0,0.8,0.4,1.2,1,1.2c0.4,0,0.7-0.3,0.8-0.7c0-0.1,0-0.2,0-0.3L55.9,23.1L55.9,23.1z"/>
	</g>
	<line class="st4" x1="68.3" y1="32.3" x2="68.3" y2="0.4"/>
</g>
</svg>
